<?xml version="1.0" standalone="no"?>
<!DOCTYPE svg PUBLIC "-//W3C//DTD SVG 20010904//EN"
 "http://www.w3.org/TR/2001/REC-SVG-20010904/DTD/svg10.dtd">
<svg version="1.0" xmlns="http://www.w3.org/2000/svg"
 width="337.000000pt" height="337.000000pt" viewBox="0 0 337.000000 337.000000"
 preserveAspectRatio="xMidYMid meet">
<metadata>
Created by potrace 1.11, written by Peter Selinger 2001-2013
</metadata>
<g transform="translate(0.000000,337.000000) scale(0.100000,-0.100000)"
fill="#000000" stroke="none">
<path d="M565 3105 c-4 -16 -12 -48 -17 -70 -6 -22 -12 -53 -15 -70 -2 -16 -8
-43 -13 -60 -5 -16 -12 -46 -15 -65 -3 -19 -10 -51 -15 -70 -5 -19 -12 -51
-15 -70 -3 -19 -19 -105 -35 -190 -66 -353 -68 -412 -18 -521 95 -206 364
-616 783 -1194 228 -314 406 -555 412 -555 2 0 1 5 -2 10 -4 6 -24 59 -45 118
-21 59 -88 247 -150 417 -61 171 -136 378 -165 460 -29 83 -68 188 -85 235
-17 47 -44 121 -60 165 -15 44 -47 132 -70 195 -23 63 -63 176 -90 250 -26 74
-66 185 -88 245 -22 61 -92 254 -155 430 -64 176 -120 331 -125 345 l-10 25
-7 -30z"/>
<path d="M2761 3037 c-18 -51 -52 -146 -76 -212 -117 -323 -220 -607 -279
-775 -37 -102 -73 -201 -81 -220 -13 -32 -152 -421 -197 -550 -10 -30 -23 -64
-27 -75 -5 -11 -14 -33 -19 -50 -16 -45 -140 -391 -167 -465 -73 -200 -155
-434 -152 -436 4 -5 212 277 568 771 271 377 539 795 615 962 44 95 47 159 18
332 -7 42 -44 244 -49 271 -3 14 -8 41 -11 60 -13 78 -101 471 -106 476 -2 2
-19 -38 -37 -89z"/>
<path d="M981 2279 c31 -88 37 -103 103 -294 24 -71 75 -215 111 -320 37 -104
88 -253 115 -330 99 -286 150 -434 205 -590 31 -88 58 -167 60 -175 2 -8 19
-58 38 -110 19 -52 42 -119 52 -148 9 -29 19 -51 22 -49 2 3 26 70 53 149 50
147 143 415 270 778 40 113 83 237 96 275 12 39 53 156 89 260 37 105 89 253
115 330 27 77 62 177 78 223 16 45 27 82 26 82 -2 0 -34 -21 -71 -47 -135 -92
-339 -172 -486 -190 -76 -9 -276 -10 -337 -1 -176 25 -347 92 -493 192 -37 25
-69 46 -71 46 -2 0 9 -36 25 -81z"/>
</g>
</svg>
