<?xml version="1.0" standalone="no"?>
<!DOCTYPE svg PUBLIC "-//W3C//DTD SVG 20010904//EN"
 "http://www.w3.org/TR/2001/REC-SVG-20010904/DTD/svg10.dtd">
<svg version="1.0" xmlns="http://www.w3.org/2000/svg"
 width="260.000000pt" height="260.000000pt" viewBox="0 0 260.000000 260.000000"
 preserveAspectRatio="xMidYMid meet">
<metadata>
Created by potrace 1.11, written by Peter Selinger 2001-2013
</metadata>
<g transform="translate(0.000000,260.000000) scale(0.100000,-0.100000)"
fill="#000000" stroke="none">
<path d="M287 2514 c-10 -43 -19 -89 -22 -102 -2 -13 -7 -32 -10 -42 -3 -10
-8 -31 -10 -46 -2 -16 -20 -105 -39 -199 -19 -93 -37 -189 -40 -212 -3 -24 -9
-62 -13 -85 -4 -24 -7 -79 -8 -123 0 -71 4 -87 34 -150 86 -174 354 -583 658
-1004 115 -159 385 -525 395 -536 5 -5 -10 42 -32 105 -23 63 -61 169 -85 235
-24 66 -63 176 -88 245 -25 69 -107 296 -182 505 -74 209 -144 403 -155 430
-19 51 -85 235 -255 710 -52 149 -104 288 -114 309 l-17 39 -17 -79z"/>
<path d="M2287 2580 c-9 -20 -287 -789 -297 -820 -4 -14 -90 -252 -190 -530
-270 -749 -304 -844 -399 -1110 -22 -63 -34 -106 -25 -95 8 11 23 31 34 45 30
40 198 268 261 355 32 44 68 93 79 108 113 145 479 688 581 862 110 187 124
220 124 300 0 129 -28 292 -121 720 -2 11 -6 31 -9 45 -17 84 -33 133 -38 120z"/>
<path d="M712 1733 c33 -93 99 -285 148 -428 48 -143 109 -318 134 -390 26
-71 48 -137 51 -145 2 -8 13 -42 25 -75 12 -33 44 -123 70 -200 27 -77 70
-198 95 -270 26 -72 51 -145 56 -163 9 -30 29 -45 29 -22 0 6 34 108 76 228
42 119 111 318 154 442 43 124 103 295 133 380 30 85 71 202 90 260 19 58 69
203 111 322 42 120 76 220 76 223 0 3 -26 -12 -57 -33 -182 -123 -374 -180
-606 -179 -214 1 -406 60 -579 177 -32 22 -59 40 -61 40 -3 0 22 -75 55 -167z"/>
</g>
</svg>
